<?xml version="1.0" encoding="UTF-8"?>
<svg width="793px" height="792px" viewBox="0 0 793 792" version="1.1" xmlns="http://www.w3.org/2000/svg" xmlns:xlink="http://www.w3.org/1999/xlink">
    <title>Group</title>
    <g id="Page-1" stroke="none" stroke-width="1" fill="none" fill-rule="evenodd">
        <g id="Group" transform="translate(0.990496, 0.000000)" fill="#F1F0ED">
            <path d="M692.000496,142.89565 L636.139152,110.881109 L682.388784,84.1344768 L682.412544,91.8453888 L653.197248,109.139026 L653.216256,111.876178 L699.79536,138.570538 L692.000496,142.89565 Z M653.599584,109.821413 L663.079666,104.182848 L663.878002,104.176987 L664.29,104.412845 L683.209296,93.2147568 L683.176032,82.764 L633.759984,111.34332 L691.987824,144.714082 L702.209376,139.042094 L653.610672,111.18983 L653.599584,109.821413 L653.599584,109.821413 Z" id="Fill-3"></path>
            <polyline id="Fill-4" points="692.790912 120.746419 684.86616 116.205091 692.790912 120.746419"></polyline>
            <polyline id="Fill-5" points="703.194624 69.6860208 693.985248 64.4087664 693.592416 64.6370208 694.384416 65.095272 694.384416 66.4625808 702.009792 70.83252 702.222048 137.223821 655.576416 110.490178 663.493248 105.781262 693.188496 122.799758 683.681328 117.351749 683.283744 116.667619 683.280576 115.295717 664.29 104.412845 654.003504 110.502058 703.0188 138.592872 702.209376 139.042094 702.625968 139.28017 703.8108 138.590338 703.592208 70.3704672 703.194624 69.6860208"></polyline>
            <polyline id="Fill-6" points="692.800416 66.462264 692.800416 66.4624224 692.790912 120.746419 692.800416 66.462264"></polyline>
            <polyline id="Fill-7" points="654.003504 110.502058 664.29 104.412845 663.878002 104.176987 663.079666 104.182848 653.599584 109.821413 653.610672 111.18983 702.209376 139.042094 703.0188 138.592872 654.003504 110.502058"></polyline>
            <polyline id="Fill-8" points="694.373328 122.111827 694.384416 66.4625808 694.382832 66.462264 694.373328 122.111827"></polyline>
            <polyline id="Fill-9" points="683.96328 81.3935232 683.999712 92.7465264 683.209296 93.2147568 683.280576 115.295717 684.86616 116.205091 684.753696 81.3903552 683.565696 80.7074928 633.802752 109.488456 634.105296 100.112602 692.800416 66.4624224 692.800416 65.0966976 693.592416 64.6370208 693.198 64.4084496 632.93472 98.9581824 632.537136 99.6202944 632.1744 110.861942 633.3624 111.573317 633.759984 111.34332 632.964816 110.887286 683.96328 81.3935232"></polyline>
            <polyline id="Fill-10" points="683.209296 93.2147568 683.999712 92.7465264 683.96328 81.3935232 632.964816 110.887286 633.759984 111.34332 683.176032 82.764 683.209296 93.2147568"></polyline>
            <polyline id="Fill-11" points="692.800416 66.4624224 692.800416 66.462264 692.790912 120.746419 684.86616 116.205091 683.280576 115.295717 683.283744 116.667619 683.681328 117.351749 693.188496 122.799758 694.373328 122.111827 694.382832 66.462264 694.384416 66.4625808 694.384416 65.095272 693.592416 64.6370208 692.800416 65.0966976 692.800416 66.4624224"></polyline>
            <path d="M508.017312,285.089904 L504.486576,293.276016 L440.702064,302.048208 L460.9836,252.621072 L465.713424,258.711552 L453.144384,290.248992 L454.831344,292.404816 L508.017312,285.089904 Z M453.880944,290.543616 L457.94232,280.2888 L458.571168,279.796176 L459.041616,279.731232 L467.180208,259.30872 L460.771344,251.054496 L439.10064,303.86664 L505.587456,294.723792 L510.215904,283.989024 L454.725216,291.620736 L453.880944,290.543616 L453.880944,290.543616 Z" id="Fill-12"></path>
            <polyline id="Fill-13" points="458.43336 232.26984 491.583312 275.254848 458.43336 232.26984"></polyline>
            <polyline id="Fill-14" points="459.687888 231.302016 468.395136 230.104512 509.116608 282.541248 455.853024 289.865664 459.245952 281.30256 482.297904 278.131392 481.566096 277.832016 480.723408 276.74856 459.041616 279.731232 454.61592 290.835072 510.583392 283.138416 510.215904 283.989024 510.691104 283.922496 511.209072 282.653712 469.366128 228.772368 468.632736 228.472992 458.118144 229.919184 457.947072 230.338944 458.85312 230.21856 459.687888 231.302016"></polyline>
            <polyline id="Fill-15" points="454.61592 290.835072 459.041616 279.731232 458.571168 279.796176 457.94232 280.2888 453.880944 290.543616 454.725216 291.620736 510.215904 283.989024 510.583392 283.138416 454.61592 290.835072"></polyline>
            <polyline id="Fill-16" points="459.687888 231.302016 493.671024 275.37048 459.687888 231.302016"></polyline>
            <polyline id="Fill-17" points="437.551488 304.454304 438.9264 304.292736 439.10064 303.86664 438.193008 303.991776 460.557504 249.48792 467.520768 258.454944 467.180208 259.30872 480.723408 276.74856 491.583312 275.254848 482.535504 276.499872 461.1816 249.003216 459.824112 249.188544 438.001344 302.371344 432.514368 294.763392 458.43336 232.26984 457.600176 231.187968 457.947072 230.338944 457.494048 230.399136 430.882848 294.565392 430.971552 295.332048 437.551488 304.454304"></polyline>
            <polyline id="Fill-18" points="493.151472 276.639264 482.297904 278.131392 493.151472 276.639264"></polyline>
            <polyline id="Fill-19" points="467.180208 259.30872 467.520768 258.454944 460.557504 249.48792 438.193008 303.991776 439.10064 303.86664 460.771344 251.054496 467.180208 259.30872"></polyline>
            <polyline id="Fill-20" points="458.43336 232.26984 458.43336 232.26984 491.583312 275.254848 480.723408 276.74856 481.566096 277.832016 482.297904 278.131392 493.151472 276.639264 493.671024 275.37048 459.687888 231.302016 458.85312 230.21856 457.947072 230.338944 457.600176 231.187968 458.43336 232.26984"></polyline>
            <path d="M370.808064,193.529952 L308.613888,176.87736 L346.477824,139.18513 L348.475248,146.632939 L324.658224,170.82648 L325.37736,173.468592 L377.235936,187.353936 L370.808064,193.529952 Z M325.222128,171.384048 L332.944128,163.506816 L333.713952,163.297728 L334.173312,163.419696 L349.595136,147.752827 L346.88808,137.658946 L306.431136,177.932304 L371.261088,195.29136 L379.691136,187.192368 L325.581696,172.70352 L325.222128,171.384048 L325.222128,171.384048 Z" id="Fill-21"></path>
            <polyline id="Fill-22" points="365.902416 171.916272 357.08112 169.554528 365.902416 171.916272"></polyline>
            <polyline id="Fill-23" points="353.551968 119.032056 362.042208 121.305096 379.238112 185.43096 327.30192 171.525024 333.751968 164.946672 366.813216 173.799648 356.228928 170.965872 355.669776 170.405136 355.313376 169.080912 334.173312 163.419696 325.786032 171.938448 380.358 186.550848 379.691136 187.192368 380.153664 187.31592 381.123072 186.346512 363.453552 120.453221 362.892816 119.893594 352.641168 117.148522 352.319616 117.469757 353.201904 117.710208 353.551968 119.032056"></polyline>
            <polyline id="Fill-24" points="352.02024 119.437085 352.02024 119.437243 365.902416 171.916272 352.02024 119.437085"></polyline>
            <polyline id="Fill-25" points="325.786032 171.938448 334.173312 163.419696 333.713952 163.297728 332.944128 163.506816 325.222128 171.384048 325.581696 172.70352 379.691136 187.192368 380.358 186.550848 325.786032 171.938448"></polyline>
            <polyline id="Fill-26" points="302.4648 166.171104 302.249376 166.912416 304.775856 177.873696 306.106416 178.257024 306.431136 177.932304 305.54568 177.694704 347.29992 136.132603 350.239824 147.09816 349.595136 147.752827 355.313376 169.080912 357.08112 169.554528 348.063408 135.927 346.739184 135.570758 305.998704 176.128128 303.891984 166.986864 352.02024 119.437243 351.67176 118.116979 352.319616 117.469757 351.879264 117.349848 302.4648 166.171104"></polyline>
            <polyline id="Fill-27" points="353.550384 119.031898 367.782624 172.83024 353.551968 119.032056 353.550384 119.031898"></polyline>
            <polyline id="Fill-28" points="349.595136 147.752827 350.239824 147.09816 347.29992 136.132603 305.54568 177.694704 306.431136 177.932304 346.88808 137.658946 349.595136 147.752827"></polyline>
            <polyline id="Fill-29" points="352.02024 119.437243 352.02024 119.437085 365.902416 171.916272 357.08112 169.554528 355.313376 169.080912 355.669776 170.405136 356.228928 170.965872 366.813216 173.799648 367.782624 172.83024 353.550384 119.031898 353.551968 119.032056 353.201904 117.710208 352.319616 117.469757 351.67176 118.116979 352.02024 119.437243"></polyline>
            <path d="M634.65336,720.765936 L625.744944,720.501408 L594.082368,664.438896 L647.505936,665.078832 L643.58712,671.71896 L609.637248,671.657184 L608.254416,674.020512 L634.65336,720.765936 Z M609.63408,672.450768 L620.663472,672.4476 L621.354096,672.849936 L621.586944,673.26336 L643.57128,673.30296 L648.882432,664.302672 L591.801408,663.621552 L624.804048,722.05848 L636.489216,722.405376 L608.943456,673.632432 L609.63408,672.450768 L609.63408,672.450768 Z" id="Fill-30"></path>
            <polyline id="Fill-31" points="667.098274 654.043104 667.54512 654.84144 666.846576 656.016768 671.167728 663.669072 637.428528 720.849888 610.989984 674.034768 620.202528 674.0316 631.645344 694.294128 631.653264 693.502128 632.350224 692.320464 621.586944 673.26336 609.63408 673.241184 637.414272 722.433888 636.489216 722.405376 636.725232 722.823552 638.095392 722.834798 672.7644 664.080912 672.77232 663.288912 667.55304 654.047856 667.098274 654.043104"></polyline>
            <polyline id="Fill-32" points="665.484336 655.207344 637.740576 701.865648 665.484336 655.207344"></polyline>
            <polyline id="Fill-33" points="609.63408 673.241184 621.586944 673.26336 621.354096 672.849936 620.663472 672.4476 609.63408 672.450768 608.943456 673.632432 636.489216 722.405376 637.414272 722.433888 609.63408 673.241184"></polyline>
            <polyline id="Fill-34" points="650.260512 663.528096 644.49 673.304544 643.57128 673.30296 632.350224 692.320464 637.740576 701.865648 633.249936 693.913968 650.941474 663.928848 650.268432 662.734512 592.786656 662.04864 597.836448 654.142896 665.484336 655.207344 666.18288 654.0336 667.098274 654.043104 666.876672 653.64552 597.419856 652.55256 596.74032 652.918464 590.683104 662.39712 591.342048 663.615216 591.801408 663.621552 591.351552 662.823216 650.260512 663.528096"></polyline>
            <polyline id="Fill-35" points="638.402688 703.848816 666.846576 656.016768 638.402688 703.848816"></polyline>
            <polyline id="Fill-36" points="637.032528 703.83456 631.645344 694.294128 637.032528 703.83456"></polyline>
            <polyline id="Fill-37" points="643.57128 673.30296 644.49 673.304544 650.260512 663.528096 591.351552 662.823216 591.801408 663.621552 648.882432 664.302672 643.57128 673.30296"></polyline>
            <polyline id="Fill-38" points="665.484336 655.207344 665.484336 655.207344 637.740576 701.865648 632.350224 692.320464 631.653264 693.502128 631.645344 694.294128 637.032528 703.83456 638.402688 703.848816 667.54512 654.84144 667.098274 654.043104 666.18288 654.0336 665.484336 655.207344"></polyline>
            <path d="M351.570384,602.008704 L289.377792,585.356112 L327.241728,547.664832 L329.239152,555.1128 L305.420544,579.306816 L306.141264,581.947344 L357.998256,595.832688 L351.570384,602.008704 Z M305.984448,579.8628 L313.706448,571.987152 L314.477856,571.77648 L314.935632,571.898448 L330.35904,556.232688 L327.651984,546.137856 L287.19504,586.411056 L352.023408,603.770112 L360.453456,595.67112 L306.3456,581.183856 L305.984448,579.8628 L305.984448,579.8628 Z" id="Fill-39"></path>
            <polyline id="Fill-40" points="332.784144 527.917104 346.66632 580.395024 332.784144 527.917104"></polyline>
            <polyline id="Fill-41" points="343.65672 528.373296 333.405072 525.628224 333.08352 525.948192 333.965808 526.18896 334.314288 527.5116 342.804528 529.78464 360.000432 593.909712 308.065824 580.003776 314.514288 573.425424 336.992832 579.444624 336.43368 578.885472 336.07728 577.559664 314.935632 571.898448 306.549936 580.4172 361.121904 595.0296 360.453456 595.67112 360.917568 595.794672 361.885392 594.825264 344.215872 528.932448 343.65672 528.373296"></polyline>
            <polyline id="Fill-42" points="306.549936 580.4172 314.935632 571.898448 314.477856 571.77648 313.706448 571.987152 305.984448 579.8628 306.3456 581.183856 360.453456 595.67112 361.121904 595.0296 306.549936 580.4172"></polyline>
            <polyline id="Fill-43" points="328.06224 544.612464 331.003728 555.576912 330.35904 556.232688 336.07728 577.559664 346.66632 580.395024 337.845024 578.03328 328.827312 544.406544 327.503088 544.050144 286.761024 584.60688 284.655888 575.4672 332.784144 527.917104 332.43408 526.596048 333.08352 525.948192 332.643168 525.829392 283.22712 574.649856 283.01328 575.391168 285.538176 586.352448 286.868736 586.735776 287.19504 586.411056 286.309584 586.17504 328.06224 544.612464"></polyline>
            <polyline id="Fill-44" points="348.546528 581.310576 334.314288 527.5116 348.546528 581.310576"></polyline>
            <polyline id="Fill-45" points="347.575536 582.2784 336.992832 579.444624 347.575536 582.2784"></polyline>
            <polyline id="Fill-46" points="330.35904 556.232688 331.003728 555.576912 328.06224 544.612464 286.309584 586.17504 287.19504 586.411056 327.651984 546.137856 330.35904 556.232688"></polyline>
            <polyline id="Fill-47" points="332.784144 527.917104 332.784144 527.917104 346.66632 580.395024 336.07728 577.559664 336.43368 578.885472 336.992832 579.444624 347.575536 582.2784 348.546528 581.310576 334.314288 527.5116 333.965808 526.18896 333.08352 525.948192 332.43408 526.596048 332.784144 527.917104"></polyline>
            <polyline id="Fill-48" points="11.2980384 564.604128 0 576.081792 0 578.338992 12.4182432 565.724016 9.7111872 555.630768 0 565.29792 0 566.41464 9.3009312 557.15616 11.2980384 564.604128"></polyline>
            <polyline id="Fill-49" points="42.5136096 605.164032 0 593.779824 0 594.598752 40.0582512 605.3256 33.6305376 611.501616 0 602.496576 0 604.136016 34.0838784 613.263024 42.5136096 605.164032"></polyline>
            <polyline id="Fill-50" points="16.3747584 537.002928 24.8645232 539.275968 42.060744 603.402624 0 592.140384 0 592.959312 43.1809488 604.522512 42.5136096 605.164032 42.9764544 605.287584 43.9460208 604.316592 26.2760256 538.42536 25.7163984 537.864624 15.4644336 535.119552 15.1427232 535.441104 16.0248528 535.681872 16.3747584 537.002928"></polyline>
            <polyline id="Fill-51" points="14.8438224 537.408432 14.8433472 537.408432 28.72584 589.887936 14.8438224 537.408432"></polyline>
            <polyline id="Fill-52" points="0 583.835472 19.0520352 588.935952 18.4925664 588.3768 18.1371168 587.052576 0 582.196032 0 583.835472"></polyline>
            <polyline id="Fill-53" points="0 592.959312 0 593.779824 42.5136096 605.164032 43.1809488 604.522512 0 592.959312"></polyline>
            <polyline id="Fill-54" points="29.635848 591.771312 19.0520352 588.935952 29.635848 591.771312"></polyline>
            <polyline id="Fill-55" points="13.0626144 565.069824 12.4182432 565.724016 18.1371168 587.052576 28.72584 589.887936 19.9040688 587.524608 10.8861984 553.897872 9.5627664 553.541472 0 563.061312 0 564.179616 10.1223936 554.103792 13.0626144 565.069824"></polyline>
            <polyline id="Fill-56" points="14.8433472 537.408432 14.4942336 536.087376 15.1427232 535.441104 14.702688 535.32072 0 549.847584 0 552.073104 14.8433472 537.408432"></polyline>
            <polyline id="Fill-57" points="16.3741248 537.002928 30.606048 590.801904 16.3747584 537.002928 16.3741248 537.002928"></polyline>
            <polyline id="Fill-58" points="12.4182432 565.724016 13.0626144 565.069824 10.1223936 554.103792 0 564.179616 0 565.29792 9.7111872 555.630768 12.4182432 565.724016"></polyline>
            <polyline id="Fill-59" points="14.8433472 537.408432 14.8438224 537.408432 28.72584 589.887936 18.1371168 587.052576 18.4925664 588.3768 19.0520352 588.935952 29.635848 591.771312 30.606048 590.801904 16.3741248 537.002928 16.3747584 537.002928 16.0248528 535.681872 15.1427232 535.441104 14.4942336 536.087376 14.8433472 537.408432"></polyline>
            <polyline id="Fill-60" points="780.045394 589.355712 787.765968 581.47848 788.537376 581.267808 788.994994 581.39136 792 578.338992 792 576.081792 779.481648 588.798144 780.200784 591.440256 792 594.598752 792 593.779824 780.40512 590.675184 780.045394 589.355712"></polyline>
            <polyline id="Fill-61" points="763.437312 594.84744 792 566.41464 792 565.29792 761.25456 595.903968 792 604.136016 792 602.496576 763.437312 594.84744"></polyline>
            <polyline id="Fill-62" points="788.573808 582.918336 792 583.835472 792 582.196032 788.994994 581.39136 780.609456 589.910112 792 592.959312 792 592.140384 782.125344 589.496688 788.573808 582.918336"></polyline>
            <polyline id="Fill-63" points="788.994994 581.39136 788.537376 581.267808 787.765968 581.47848 780.045394 589.355712 780.40512 590.675184 792 593.779824 792 592.959312 780.609456 589.910112 788.994994 581.39136"></polyline>
            <polyline id="Fill-64" points="757.0728 584.88408 759.597538 595.843776 760.92984 596.227104 761.25456 595.903968 760.369104 595.666368 792 564.179616 792 563.061312 760.822128 594.099792 758.715408 584.958528 792 552.073104 792 549.847584 757.28664 584.142768 757.0728 584.88408"></polyline>
            <polyline id="Fill-65" points="792 564.179616 760.369104 595.666368 761.25456 595.903968 792 565.29792 792 564.179616"></polyline>
            <path d="M190.992384,290.179296 L190.504512,299.079792 L133.66283,329.318352 L135.646315,275.929632 L142.186493,280.014768 L141.270307,313.951968 L143.59752,315.393408 L190.992384,290.179296 Z M142.062307,313.974144 L142.33729,302.94792 L142.757208,302.268384 L143.176493,302.04504 L143.769701,280.068624 L134.905637,274.534128 L132.786878,331.57872 L192.03624,300.05712 L192.67776,288.386208 L143.226389,314.69328 L142.062307,313.974144 L142.062307,313.974144 Z" id="Fill-66"></path>
            <polyline id="Fill-67" points="126.230861 257.707296 126.230861 257.707296 172.176048 286.61688 126.230861 257.707296"></polyline>
            <polyline id="Fill-68" points="172.176048 286.61688 164.113488 290.906352 172.176048 286.61688"></polyline>
            <polyline id="Fill-69" points="127.074182 256.367232 134.833406 252.239328 191.146032 287.405712 143.679888 312.65784 143.909726 303.450048 164.452464 292.520448 163.662048 292.49352 162.497808 291.766464 143.176493 302.04504 142.853515 313.994736 192.728448 287.461152 192.67776 288.386208 193.100688 288.159696 193.148208 286.789536 135.284688 250.653744 134.493797 250.625232 125.123962 255.61008 125.107805 256.064688 125.917229 255.638592 127.074182 256.367232"></polyline>
            <polyline id="Fill-70" points="142.853515 313.994736 143.176493 302.04504 142.757208 302.268384 142.33729 302.94792 142.062307 313.974144 143.226389 314.69328 192.67776 288.386208 192.728448 287.461152 142.853515 313.994736"></polyline>
            <polyline id="Fill-71" points="127.073866 256.367232 174.175056 286.003872 127.074182 256.367232 127.073866 256.367232"></polyline>
            <polyline id="Fill-72" points="174.125952 287.374032 164.452464 292.520448 174.125952 287.374032"></polyline>
            <polyline id="Fill-73" points="132.769771 332.03808 132.786878 331.57872 131.977771 332.009568 134.165117 273.13704 143.794411 279.151488 143.769701 280.068624 162.497808 291.766464 164.113488 290.906352 134.58361 272.465424 133.3728 273.108528 131.239944 330.555456 123.464563 325.307664 126.230861 257.707296 125.074858 256.98024 125.107805 256.064688 124.704043 256.276944 121.863614 325.684656 122.212728 326.372112 131.53536 332.665344 132.769771 332.03808"></polyline>
            <polyline id="Fill-74" points="143.769701 280.068624 143.794411 279.151488 134.165117 273.13704 131.977771 332.009568 132.786878 331.57872 134.905637 274.534128 143.769701 280.068624"></polyline>
            <polyline id="Fill-75" points="126.230861 257.707296 126.230861 257.707296 172.176048 286.61688 164.113488 290.906352 162.497808 291.766464 163.662048 292.49352 164.452464 292.520448 174.125952 287.374032 174.175056 286.003872 127.073866 256.367232 127.074182 256.367232 125.917229 255.638592 125.107805 256.064688 125.074858 256.98024 126.230861 257.707296"></polyline>
            <path d="M488.404224,455.615424 L487.914768,464.51592 L431.072928,494.756064 L433.05768,441.367344 L439.596432,445.450896 L438.68088,479.38968 L441.007776,480.829536 L488.404224,455.615424 Z M439.47288,479.411856 L439.748496,468.384048 L440.168256,467.706096 L440.586432,467.482752 L441.180432,445.506336 L432.316368,439.970256 L430.196976,497.016432 L489.44808,465.494832 L490.088016,453.822336 L440.63712,480.130992 L439.47288,479.411856 L439.47288,479.411856 Z" id="Fill-76"></path>
            <polyline id="Fill-77" points="469.586304 452.054592 461.523744 456.344064 469.586304 452.054592"></polyline>
            <polyline id="Fill-78" points="423.6408 423.145008 423.6408 423.145008 469.586304 452.054592 423.6408 423.145008"></polyline>
            <polyline id="Fill-79" points="424.485072 421.80336 432.243504 417.675456 488.556288 452.843424 441.090144 478.095552 441.319824 468.886176 471.536208 452.811744 461.864304 457.95816 461.072304 457.929648 459.909648 457.202592 440.586432 467.482752 440.26488 479.432448 490.138704 452.898864 490.088016 453.822336 490.512528 453.597408 490.558464 452.227248 432.694944 416.089872 431.904528 416.062944 422.535168 421.047792 422.517744 421.500816 423.327168 421.076304 424.485072 421.80336"></polyline>
            <polyline id="Fill-80" points="440.26488 479.432448 440.586432 467.482752 440.168256 467.706096 439.748496 468.384048 439.47288 479.411856 440.63712 480.130992 490.088016 453.822336 490.138704 452.898864 440.26488 479.432448"></polyline>
            <polyline id="Fill-81" points="429.389136 497.44728 431.575056 438.574752 441.205776 444.587616 441.180432 445.506336 459.909648 457.202592 461.523744 456.344064 431.994816 437.903136 430.783056 438.544656 428.650992 495.991584 420.875136 490.743792 423.6408 423.145008 422.486064 422.416368 422.517744 421.500816 422.115408 421.713072 419.273712 491.120784 419.623776 491.809824 428.945616 498.103056 430.181136 497.475792 430.196976 497.016432 429.389136 497.44728"></polyline>
            <polyline id="Fill-82" points="424.485072 421.804944 471.585312 451.441584 424.485072 421.80336 424.485072 421.804944"></polyline>
            <polyline id="Fill-83" points="441.180432 445.506336 441.205776 444.587616 431.575056 438.574752 429.389136 497.44728 430.196976 497.016432 432.316368 439.970256 441.180432 445.506336"></polyline>
            <polyline id="Fill-84" points="423.6408 423.145008 423.6408 423.145008 469.586304 452.054592 459.909648 457.202592 461.072304 457.929648 461.864304 457.95816 471.536208 452.811744 471.585312 451.441584 424.485072 421.804944 424.485072 421.80336 423.327168 421.076304 422.517744 421.500816 422.486064 422.416368 423.6408 423.145008"></polyline>
            <polyline id="Fill-85" points="118.557173 43.0889184 85.5491472 0 84.5521776 0 116.512229 41.7208176 107.652125 42.6987792 74.943 0 72.9474768 0 106.937741 44.371008 118.557173 43.0889184"></polyline>
            <polyline id="Fill-86" points="116.938325 22.5745344 126.399874 0 126.399398 0 116.938325 22.5745344"></polyline>
            <polyline id="Fill-87" points="116.938325 22.5745344 111.384662 15.3245664 116.938325 22.5745344"></polyline>
            <polyline id="Fill-88" points="119.271874 41.416848 87.5446704 0 86.5472256 0 119.477477 42.9872256 118.557173 43.0889184 118.848787 43.4692368 120.208493 43.2908784 138.180082 0 136.464926 0 119.271874 41.416848"></polyline>
            <polyline id="Fill-89" points="109.746173 15.1397136 110.272061 13.872672 99.6450048 0 97.6499568 0 109.848658 15.9242688 109.746173 15.1397136"></polyline>
            <polyline id="Fill-90" points="86.5472256 0 85.5491472 0 118.557173 43.0889184 119.477477 42.9872256 86.5472256 0"></polyline>
            <polyline id="Fill-91" points="111.384662 15.3245664 117.746165 0 116.031485 0 110.272061 13.872672 111.384662 15.3245664"></polyline>
            <polyline id="Fill-92" points="116.511437 24.6220128 109.848658 15.9242688 116.511437 24.6220128"></polyline>
            <polyline id="Fill-93" points="128.116771 0 128.116454 0 117.871142 24.445872 128.116771 0"></polyline>
            <polyline id="Fill-94" points="111.384662 15.3245664 111.384662 15.3245664 110.272061 13.872672 109.746173 15.1397136 109.848658 15.9242688 116.511437 24.6220128 117.871142 24.445872 128.116454 0 126.399874 0 116.938325 22.5745344 111.384662 15.3245664"></polyline>
            <polyline id="Fill-95" points="68.4983376 783.587376 121.489632 776.787264 118.533096 783.908928 84.9049344 788.57064 83.8650384 791.103456 84.5521776 792 85.5491472 792 84.493728 790.62192 85.0123296 789.356304 95.9352768 787.81824 96.6742128 788.122368 96.9628176 788.497776 118.738541 785.478672 122.745744 775.82736 66.1250304 783.093168 72.9474768 792 74.943 792 68.4983376 783.587376"></polyline>
            <polyline id="Fill-96" points="95.6978352 789.451344 97.6499568 792 99.6450048 792 96.9628176 788.497776 85.1222592 790.140384 86.5472256 792 87.5446704 792 86.5762128 790.735968 95.6978352 789.451344"></polyline>
            <polyline id="Fill-97" points="126.399874 792 137.920939 764.50968 137.920464 764.50968 126.399398 792 126.399874 792"></polyline>
            <polyline id="Fill-98" points="146.262442 771.498288 139.808117 763.074576 139.357152 763.1316 139.910126 763.86024 139.381546 765.121104 144.726437 772.098624 136.464926 792 138.180082 792 146.36461 772.283952 146.262442 771.498288"></polyline>
            <polyline id="Fill-99" points="96.9628176 788.497776 96.6742128 788.122368 95.9352768 787.81824 85.0123296 789.356304 84.493728 790.62192 85.5491472 792 86.5472256 792 85.1222592 790.140384 96.9628176 788.497776"></polyline>
            <polyline id="Fill-100" points="128.116454 792 128.116771 792 139.381546 765.121104 139.381229 765.121104 128.116454 792"></polyline>
            <polyline id="Fill-101" points="124.001698 774.867456 119.64839 785.351952 118.738541 785.478672 116.031485 792 117.746165 792 124.732714 775.17 123.90048 774.081792 66.8810736 781.399872 70.782624 772.868448 137.920464 764.50968 138.448411 763.2504 139.357152 763.1316 139.081853 762.768864 70.1483904 771.350976 69.5266704 771.808752 64.848168 782.03664 65.6691552 783.15336 66.1250304 783.093168 65.5677792 782.366112 124.001698 774.867456"></polyline>
            <polyline id="Fill-102" points="118.738541 785.478672 119.64839 785.351952 124.001698 774.867456 65.5677792 782.366112 66.1250304 783.093168 122.745744 775.82736 118.738541 785.478672"></polyline>
            <polyline id="Fill-103" points="137.920464 764.50968 137.920939 764.50968 126.399874 792 128.116454 792 139.381229 765.121104 139.381546 765.121104 139.910126 763.86024 139.357152 763.1316 138.448411 763.2504 137.920464 764.50968"></polyline>
            <polyline id="Fill-104" points="475.813008 103.306896 476.234352 104.902142 476.875872 103.979779 475.813008 103.306896"></polyline>
            <polyline id="Fill-105" points="525.7692 147.044462 526.017888 146.665411 525.376368 146.788013 525.7692 147.044462"></polyline>
            <polyline id="Fill-106" points="527.229648 144.819576 527.231232 144.819259 555.557904 101.719411 527.229648 144.819576"></polyline>
            <polyline id="Fill-107" points="478.214352 104.829437 516.7404 129.234125 478.215936 104.82817 478.214352 104.829437"></polyline>
            <polyline id="Fill-108" points="525.30984 144.855216 480.744 115.815269 478.371168 106.803259 519.651792 132.954149 476.405424 105.55681 479.367504 116.808754 524.441808 146.179282 553.368816 102.165307 525.30984 144.855216"></polyline>
            <polyline id="Fill-109" points="527.894928 125.056325 522.368352 133.733477 546.118848 97.336008 553.368816 102.165307 544.805712 96.4526112 526.654656 124.268918 527.894928 125.056325"></polyline>
            <polyline id="Fill-110" points="508.204224 61.7504976 517.678128 58.8025152 519.12432 56.6934192 507.215808 60.3988704 476.875872 103.979779 478.215936 104.82817 508.204224 61.7504976"></polyline>
            <polyline id="Fill-111" points="488.690928 101.085019 497.971584 87.54768 488.586384 101.236766 488.690928 101.085019"></polyline>
            <polyline id="Fill-112" points="521.565264 55.934208 519.753168 56.498112 520.72416 57.1600656 521.565264 55.934208"></polyline>
            <polyline id="Fill-113" points="475.969824 105.280718 476.405424 105.55681 476.234352 104.902142 475.969824 105.280718"></polyline>
            <polyline id="Fill-114" points="522.368352 133.733477 521.932752 134.399866 519.651792 132.954149 521.940672 134.404618 522.368352 133.733477"></polyline>
            <polyline id="Fill-115" points="497.420352 107.520019 488.958624 102.22645 525.70584 125.543246 521.454384 132.221074 516.7404 129.234125 521.462304 132.226142 526.654656 124.268918 498.283632 106.266442 497.420352 107.520019"></polyline>
            <polyline id="Fill-116" points="521.932752 134.399866 522.368352 133.733477 527.894928 125.056325 526.654656 124.268918 521.462304 132.226142 478.214352 104.829437 478.215936 104.82817 476.875872 103.979779 476.234352 104.902142 476.405424 105.55681 519.651792 132.954149 521.932752 134.399866"></polyline>
            <polyline id="Fill-117" points="498.283632 106.266442 517.537152 78.2641728 516.322224 77.4542736 521.641296 69.498792 496.975248 105.372274 490.463424 101.299018 519.8292 58.4676576 562.855392 87.762312 565.055568 96.6433248 567.00072 97.9051392 564.246144 86.7943296 520.72416 57.1600656 490.460256 101.303136 498.283632 106.266442"></polyline>
            <polyline id="Fill-118" points="522.560016 70.9763472 522.560016 70.9763472 528.11352 74.5775712 522.560016 70.9763472"></polyline>
            <polyline id="Fill-119" points="519.415776 56.2687488 519.12432 56.6934192 519.753168 56.498112 519.415776 56.2687488"></polyline>
            <polyline id="Fill-120" points="488.958624 102.22645 488.226816 101.761546 488.586384 101.236766 488.222064 101.765822 488.958624 102.22645"></polyline>
            <polyline id="Fill-121" points="517.679712 58.8023568 517.678128 58.8025152 497.971584 87.54768 517.679712 58.8023568"></polyline>
            <polyline id="Fill-122" points="567.15912 98.5425408 566.539776 99.4935744 567.558288 100.154894 567.15912 98.5425408"></polyline>
            <polyline id="Fill-123" points="517.679712 58.8023568 488.690928 101.085019 488.586384 101.236766 488.226816 101.761546 488.958624 102.22645 497.420352 107.520019 498.283632 106.266442 490.460256 101.303136 520.72416 57.1600656 519.753168 56.498112 519.12432 56.6934192 517.678128 58.8025152 517.679712 58.8023568"></polyline>
            <polyline id="Fill-124" points="545.665824 95.1328224 555.557904 101.719411 518.519232 77.0161392 522.560016 70.9763472 522.552096 70.9706448 517.537152 78.2641728 544.805712 96.4526112 545.665824 95.1328224"></polyline>
            <polyline id="Fill-125" points="521.641296 69.498792 522.119664 68.8040496 565.055568 96.6438 565.055568 96.6433248 522.11016 68.7980304 521.641296 69.498792"></polyline>
            <polyline id="Fill-126" points="523.849392 147.079786 525.376368 146.788013 524.441808 146.179282 523.849392 147.079786"></polyline>
            <polyline id="Fill-127" points="567.40464 98.1664992 567.00072 97.9051392 567.15912 98.5425408 567.40464 98.1664992"></polyline>
            <polyline id="Fill-128" points="565.209216 98.6321952 536.217264 143.102203 527.231232 144.819259 526.017888 146.665411 537.178752 144.532238 566.539776 99.4935744 528.11352 74.5775712 565.209216 98.6321952"></polyline>
            <polyline id="Fill-129" points="527.229648 144.819576 555.557904 101.719411 545.665824 95.1328224 544.805712 96.4526112 553.368816 102.165307 524.441808 146.179282 525.376368 146.788013 526.017888 146.665411 527.231232 144.819259 527.229648 144.819576"></polyline>
            <polyline id="Fill-130" points="567.00072 97.9051392 565.055568 96.6433248 565.055568 96.6438 522.119664 68.8040496 521.641296 69.498792 516.322224 77.4542736 517.537152 78.2641728 522.552096 70.9706448 522.560016 70.9763472 566.539776 99.4935744 567.15912 98.5425408 567.00072 97.9051392"></polyline>
            <polyline id="Fill-131" points="172.682928 698.109984 128.115979 669.070512 125.74283 660.057552 167.023296 686.209392 123.777878 658.812528 126.740117 670.06368 171.813312 699.434208 200.74032 655.4196 172.682928 698.109984"></polyline>
            <polyline id="Fill-132" points="175.266432 678.311568 169.739856 686.98872 193.490352 650.591568 200.74032 655.4196 192.177216 649.707696 174.02616 677.52432 175.266432 678.311568"></polyline>
            <polyline id="Fill-133" points="125.58649 658.083888 164.111904 682.488576 125.587282 658.083888 125.58649 658.083888"></polyline>
            <polyline id="Fill-134" points="173.140704 700.299072 173.390976 699.920496 172.747872 700.042464 173.140704 700.299072"></polyline>
            <polyline id="Fill-135" points="123.185779 656.561664 123.605698 658.156752 124.247693 657.234864 123.185779 656.561664"></polyline>
            <polyline id="Fill-136" points="174.601152 698.075136 174.602736 698.073552 202.929408 654.974496 174.601152 698.075136"></polyline>
            <polyline id="Fill-137" points="136.063066 654.340896 145.343563 640.802448 135.95868 654.491534 136.063066 654.340896"></polyline>
            <polyline id="Fill-138" points="144.792965 660.775104 136.330762 655.481376 173.077344 678.797856 168.827472 685.476 164.111904 682.488576 168.833808 685.480752 174.02616 677.52432 145.654502 659.52216 144.792965 660.775104"></polyline>
            <polyline id="Fill-139" points="155.575411 615.005424 165.051216 612.0576 166.495824 609.947712 154.587312 613.654272 124.247693 657.234864 125.587282 658.083888 155.575411 615.005424"></polyline>
            <polyline id="Fill-140" points="168.936768 609.188976 167.124672 609.75288 168.097248 610.414992 168.936768 609.188976"></polyline>
            <polyline id="Fill-141" points="123.341962 658.535328 123.777878 658.812528 123.605698 658.156752 123.341962 658.535328"></polyline>
            <polyline id="Fill-142" points="169.739856 686.98872 169.30584 687.654 167.023296 686.209392 169.312176 687.660336 169.739856 686.98872"></polyline>
            <polyline id="Fill-143" points="169.30584 687.654 169.739856 686.98872 175.266432 678.311568 174.02616 677.52432 168.833808 685.480752 125.58649 658.083888 125.587282 658.083888 124.247693 657.234864 123.605698 658.156752 123.777878 658.812528 167.023296 686.209392 169.30584 687.654"></polyline>
            <polyline id="Fill-144" points="169.933104 624.23064 169.933104 624.23064 175.486608 627.832656 169.933104 624.23064"></polyline>
            <polyline id="Fill-145" points="136.330762 655.481376 135.598637 655.017264 135.95868 654.491534 135.594835 655.020432 136.330762 655.481376"></polyline>
            <polyline id="Fill-146" points="214.530624 651.796992 213.91128 652.748976 214.929792 653.409504 214.530624 651.796992"></polyline>
            <polyline id="Fill-147" points="166.78728 609.5232 166.495824 609.947712 167.124672 609.75288 166.78728 609.5232"></polyline>
            <polyline id="Fill-148" points="145.654502 659.52216 164.908656 631.518624 163.695312 630.7092 169.014384 622.754352 144.346277 658.6272 137.836195 654.554736 167.200704 611.723376 210.226896 641.017872 212.427072 649.89936 214.372224 651.160224 211.617648 640.050048 168.097248 610.414992 137.832394 654.557904 145.654502 659.52216"></polyline>
            <polyline id="Fill-149" points="165.051216 612.0576 165.051216 612.0576 145.343563 640.802448 165.051216 612.0576"></polyline>
            <polyline id="Fill-150" points="165.051216 612.0576 136.063066 654.340896 135.95868 654.491534 135.598637 655.017264 136.330762 655.481376 144.792965 660.775104 145.654502 659.52216 137.832394 654.557904 168.097248 610.414992 167.124672 609.75288 166.495824 609.947712 165.051216 612.0576"></polyline>
            <polyline id="Fill-151" points="212.582304 651.88728 183.588768 696.356496 174.602736 698.073552 173.390976 699.920496 184.550256 697.786848 213.91128 652.748976 175.486608 627.832656 212.582304 651.88728"></polyline>
            <polyline id="Fill-152" points="214.776144 651.421584 214.372224 651.160224 214.530624 651.796992 214.776144 651.421584"></polyline>
            <polyline id="Fill-153" points="171.22248 700.335504 172.747872 700.042464 171.813312 699.434208 171.22248 700.335504"></polyline>
            <polyline id="Fill-154" points="169.014384 622.754352 169.491168 622.058976 212.427072 649.89936 169.483248 622.05264 169.014384 622.754352"></polyline>
            <polyline id="Fill-155" points="193.038912 648.388224 202.929408 654.974496 165.890736 630.270432 169.933104 624.23064 169.9236 624.225888 164.908656 631.518624 192.177216 649.707696 193.038912 648.388224"></polyline>
            <polyline id="Fill-156" points="174.601152 698.075136 202.929408 654.974496 193.038912 648.388224 192.177216 649.707696 200.74032 655.4196 171.813312 699.434208 172.747872 700.042464 173.390976 699.920496 174.602736 698.073552 174.601152 698.075136"></polyline>
            <polyline id="Fill-157" points="214.372224 651.160224 212.427072 649.89936 169.491168 622.058976 169.014384 622.754352 163.695312 630.7092 164.908656 631.518624 169.9236 624.225888 169.933104 624.23064 213.91128 652.748976 214.530624 651.796992 214.372224 651.160224"></polyline>
            <polyline id="Fill-158" points="326.364192 384.530256 364.888656 408.934944 326.364192 384.528672 326.364192 384.530256"></polyline>
            <polyline id="Fill-159" points="373.45968 424.554768 328.89384 395.515296 326.519424 386.50392 367.800048 412.654176 324.555264 385.257312 327.517344 396.508464 372.591648 425.878992 401.518656 381.865968 373.45968 424.554768"></polyline>
            <polyline id="Fill-160" points="376.044768 404.756352 370.518192 413.433504 394.267104 377.036352 401.518656 381.865968 392.953968 376.15248 374.804496 403.969104 376.044768 404.756352"></polyline>
            <polyline id="Fill-161" points="323.962848 383.006448 324.382608 384.601536 325.025712 383.679648 323.962848 383.006448"></polyline>
            <polyline id="Fill-162" points="373.91904 426.743856 374.167728 426.36528 373.526208 426.488832 373.91904 426.743856"></polyline>
            <polyline id="Fill-163" points="375.379488 424.51992 375.381072 424.51992 403.707744 381.41928 375.379488 424.51992"></polyline>
            <polyline id="Fill-164" points="324.119664 384.980112 324.555264 385.257312 324.382608 384.601536 324.119664 384.980112"></polyline>
            <polyline id="Fill-165" points="356.35248 341.450208 365.827968 338.502384 367.27416 336.39408 355.364064 340.099056 325.025712 383.679648 326.364192 384.528672 356.35248 341.450208"></polyline>
            <polyline id="Fill-166" points="369.715104 335.63376 367.901424 336.197664 368.874 336.859776 369.715104 335.63376"></polyline>
            <polyline id="Fill-167" points="345.570192 387.219888 337.108464 381.92616 373.85568 405.244224 369.604224 411.920784 364.888656 408.934944 369.612144 411.925536 374.804496 403.969104 346.431888 385.966944 345.570192 387.219888"></polyline>
            <polyline id="Fill-168" points="336.840768 380.78568 346.121424 367.247232 336.736224 380.93616 336.840768 380.78568"></polyline>
            <polyline id="Fill-169" points="370.518192 413.433504 370.082592 414.100368 367.800048 412.654176 370.090512 414.10512 370.518192 413.433504"></polyline>
            <polyline id="Fill-170" points="370.082592 414.100368 370.518192 413.433504 376.044768 404.756352 374.804496 403.969104 369.612144 411.925536 364.888656 408.934944 326.364192 384.530256 326.364192 384.528672 325.025712 383.679648 324.382608 384.601536 324.555264 385.257312 370.082592 414.100368"></polyline>
            <polyline id="Fill-171" points="346.431888 385.966944 365.685408 357.964992 364.472064 357.153984 369.791136 349.199136 345.123504 385.071984 338.613264 380.99952 367.97904 338.16816 411.005232 367.462656 413.203824 376.344144 415.15056 377.605008 412.395984 366.494832 368.874 336.859776 338.610096 381.002688 346.431888 385.966944"></polyline>
            <polyline id="Fill-172" points="367.565616 335.969568 367.27416 336.39408 367.901424 336.197664 367.565616 335.969568"></polyline>
            <polyline id="Fill-173" points="365.829552 338.502384 365.827968 338.502384 346.121424 367.247232 365.829552 338.502384"></polyline>
            <polyline id="Fill-174" points="337.108464 381.92616 336.376656 381.462048 336.736224 380.93616 336.371904 381.465216 337.108464 381.92616"></polyline>
            <polyline id="Fill-175" points="370.709856 350.677008 370.709856 350.677008 376.26336 354.27744 370.709856 350.677008"></polyline>
            <polyline id="Fill-176" points="415.307376 378.24336 414.688032 379.19376 415.708128 379.855872 415.307376 378.24336"></polyline>
            <polyline id="Fill-177" points="365.829552 338.502384 336.840768 380.78568 336.736224 380.93616 336.376656 381.462048 337.108464 381.92616 345.570192 387.219888 346.431888 385.966944 338.610096 381.002688 368.874 336.859776 367.901424 336.197664 367.27416 336.39408 365.827968 338.502384 365.829552 338.502384"></polyline>
            <polyline id="Fill-178" points="393.815664 374.833008 403.707744 381.41928 366.669072 356.7168 370.709856 350.677008 370.700352 350.670672 365.685408 357.964992 392.953968 376.15248 393.815664 374.833008"></polyline>
            <polyline id="Fill-179" points="369.791136 349.199136 370.269504 348.50376 413.205408 376.344144 413.203824 376.344144 370.26 348.497424 369.791136 349.199136"></polyline>
            <polyline id="Fill-180" points="371.999232 426.780288 373.526208 426.488832 372.591648 425.878992 371.999232 426.780288"></polyline>
            <polyline id="Fill-181" points="415.552896 377.866368 415.15056 377.605008 415.307376 378.24336 415.552896 377.866368"></polyline>
            <polyline id="Fill-182" points="413.359056 378.332064 384.367104 422.802864 375.381072 424.51992 374.167728 426.36528 385.327008 424.231632 414.688032 379.19376 376.26336 354.27744 413.359056 378.332064"></polyline>
            <polyline id="Fill-183" points="375.379488 424.51992 403.707744 381.41928 393.815664 374.833008 392.953968 376.15248 401.518656 381.865968 372.591648 425.878992 373.526208 426.488832 374.167728 426.36528 375.381072 424.51992 375.379488 424.51992"></polyline>
            <polyline id="Fill-184" points="415.15056 377.605008 413.203824 376.344144 413.205408 376.344144 370.269504 348.50376 369.791136 349.199136 364.472064 357.153984 365.685408 357.964992 370.700352 350.670672 370.709856 350.677008 414.688032 379.19376 415.307376 378.24336 415.15056 377.605008"></polyline>
            <polyline id="Fill-185" points="515.031264 749.506032 515.034432 749.506032 543.361104 706.407134 515.031264 749.506032"></polyline>
            <polyline id="Fill-186" points="463.616208 707.994302 464.035968 709.589232 464.677488 708.667344 463.616208 707.994302"></polyline>
            <polyline id="Fill-187" points="513.570816 751.731552 513.821088 751.352976 513.177984 751.474944 513.570816 751.731552"></polyline>
            <polyline id="Fill-188" points="515.698128 729.744048 510.169968 738.4212 533.920464 702.022464 541.170432 706.85208 532.607328 701.140176 514.456272 728.955216 515.698128 729.744048"></polyline>
            <polyline id="Fill-189" points="513.11304 749.542464 468.545616 720.502992 466.172784 711.490032 507.453408 737.641872 464.208624 710.243424 467.170704 721.49616 512.243424 750.866688 541.170432 706.85208 513.11304 749.542464"></polyline>
            <polyline id="Fill-190" points="466.017552 709.516368 504.542016 733.921056 466.017552 709.514784 466.017552 709.516368"></polyline>
            <polyline id="Fill-191" points="463.773024 709.967808 464.208624 710.243424 464.035968 709.589232 463.773024 709.967808"></polyline>
            <polyline id="Fill-192" points="476.492544 705.771792 485.774784 692.234928 476.388 705.923856 476.492544 705.771792"></polyline>
            <polyline id="Fill-193" points="485.223552 712.207584 476.761824 706.913856 513.507456 730.230336 509.256 736.90848 504.542016 733.921056 509.26392 736.913232 514.456272 728.955216 486.085248 710.953056 485.223552 712.207584"></polyline>
            <polyline id="Fill-194" points="510.169968 738.4212 509.735952 739.08648 507.453408 737.641872 509.742288 739.091232 510.169968 738.4212"></polyline>
            <polyline id="Fill-195" points="509.36688 660.621456 507.554784 661.18536 508.52736 661.847472 509.36688 660.621456"></polyline>
            <polyline id="Fill-196" points="496.00584 666.437904 505.481328 663.49008 506.92752 661.380192 495.017424 665.085168 464.677488 708.667344 466.017552 709.514784 496.00584 666.437904"></polyline>
            <polyline id="Fill-197" points="509.735952 739.08648 510.169968 738.4212 515.698128 729.744048 514.456272 728.955216 509.26392 736.913232 504.542016 733.921056 466.017552 709.516368 466.017552 709.514784 464.677488 708.667344 464.035968 709.589232 464.208624 710.243424 507.453408 737.641872 509.735952 739.08648"></polyline>
            <polyline id="Fill-198" points="510.363216 675.66312 510.363216 675.66312 515.91672 679.265136 510.363216 675.66312"></polyline>
            <polyline id="Fill-199" points="486.085248 710.953056 505.338768 682.951104 504.12384 682.14168 509.444496 674.185248 484.776864 710.05968 478.266624 705.985632 507.630816 663.154272 550.658592 692.448768 552.857184 701.330256 554.802336 702.592704 552.049344 691.481102 508.52736 661.847472 478.261872 705.990384 486.085248 710.953056"></polyline>
            <polyline id="Fill-200" points="505.481328 663.49008 505.481328 663.49008 485.774784 692.234928 505.481328 663.49008"></polyline>
            <polyline id="Fill-201" points="476.761824 706.913856 476.028432 706.44816 476.388 705.923856 476.025264 706.452912 476.761824 706.913856"></polyline>
            <polyline id="Fill-202" points="554.960736 703.229472 554.341392 704.181456 555.361488 704.841984 554.960736 703.229472"></polyline>
            <polyline id="Fill-203" points="507.217392 660.95568 506.92752 661.380192 507.554784 661.18536 507.217392 660.95568"></polyline>
            <polyline id="Fill-204" points="505.481328 663.49008 476.492544 705.771792 476.388 705.923856 476.028432 706.44816 476.761824 706.913856 485.223552 712.207584 486.085248 710.953056 478.261872 705.990384 508.52736 661.847472 507.554784 661.18536 506.92752 661.380192 505.481328 663.49008"></polyline>
            <polyline id="Fill-205" points="533.469024 699.81912 543.361104 706.407134 506.320848 681.702912 510.363216 675.66312 510.353712 675.658368 505.338768 682.951104 532.607328 701.140176 533.469024 699.81912"></polyline>
            <polyline id="Fill-206" points="553.012416 703.31976 524.020464 747.788976 515.034432 749.506032 513.821088 751.352976 524.980368 749.219328 554.341392 704.181456 515.91672 679.265136 553.012416 703.31976"></polyline>
            <polyline id="Fill-207" points="555.206256 702.854064 554.802336 702.592704 554.960736 703.229472 555.206256 702.854064"></polyline>
            <polyline id="Fill-208" points="509.444496 674.185248 509.92128 673.491456 552.857184 701.330256 509.91336 673.48512 509.444496 674.185248"></polyline>
            <polyline id="Fill-209" points="511.652592 751.7664 513.177984 751.474944 512.243424 750.866688 511.652592 751.7664"></polyline>
            <polyline id="Fill-210" points="515.031264 749.506032 543.361104 706.407134 533.469024 699.81912 532.607328 701.140176 541.170432 706.85208 512.243424 750.866688 513.177984 751.474944 513.821088 751.352976 515.034432 749.506032 515.031264 749.506032"></polyline>
            <polyline id="Fill-211" points="554.802336 702.592704 552.857184 701.330256 509.92128 673.491456 509.444496 674.185248 504.12384 682.14168 505.338768 682.951104 510.353712 675.658368 510.363216 675.66312 554.341392 704.181456 554.960736 703.229472 554.802336 702.592704"></polyline>
            <polyline id="Fill-212" points="175.017744 468.013392 145.55281 423.72792 146.934216 414.510624 174.371472 454.625424 145.621714 412.589232 143.896579 424.096992 173.696688 468.88776 217.662192 439.886304 175.017744 468.013392"></polyline>
            <polyline id="Fill-213" points="174.574224 470.205648 174.9528 469.95696 174.314448 469.815984 174.574224 470.205648"></polyline>
            <polyline id="Fill-214" points="185.215536 450.847584 176.717376 456.629184 212.908608 432.584064 217.662192 439.886304 212.051664 431.253504 184.387104 449.63424 185.215536 450.847584"></polyline>
            <polyline id="Fill-215" points="176.794992 468.740448 176.796576 468.740448 219.848112 440.340912 176.794992 468.740448"></polyline>
            <polyline id="Fill-216" points="147.570667 412.635168 173.175552 450.06984 147.571934 412.635168 147.570667 412.635168"></polyline>
            <polyline id="Fill-217" points="145.96655 410.289264 145.722139 411.920784 146.676658 411.326784 145.96655 410.289264"></polyline>
            <polyline id="Fill-218" points="192.142368 384.913584 202.010688 385.94952 204.171264 384.582528 191.76696 383.28048 146.676658 411.326784 147.571934 412.635168 192.142368 384.913584"></polyline>
            <polyline id="Fill-219" points="158.458608 414.475776 183.012192 450.429408 176.467104 454.8852 173.175552 450.06984 176.47344 454.891536 184.387104 449.63424 165.437712 421.885728 164.14992 422.696736 158.458608 414.475776"></polyline>
            <polyline id="Fill-220" points="145.330416 412.163136 145.621714 412.589232 145.722139 411.920784 145.330416 412.163136"></polyline>
            <polyline id="Fill-221" points="158.674032 413.335296 172.41048 404.654976 158.512464 413.438256 158.674032 413.335296"></polyline>
            <polyline id="Fill-222" points="176.717376 456.629184 176.047344 457.075872 174.371472 454.625424 176.052096 457.082208 176.717376 456.629184"></polyline>
            <polyline id="Fill-223" points="206.713584 384.850224 204.825456 384.652224 205.457472 385.643808 206.713584 384.850224"></polyline>
            <polyline id="Fill-224" points="176.047344 457.075872 176.717376 456.629184 185.215536 450.847584 184.387104 449.63424 176.47344 454.891536 147.570667 412.635168 147.571934 412.635168 146.676658 411.326784 145.722139 411.920784 145.621714 412.589232 176.047344 457.075872"></polyline>
            <polyline id="Fill-225" points="231.490512 443.645136 231.759792 442.00728 230.815728 442.636128 231.490512 443.645136"></polyline>
            <polyline id="Fill-226" points="158.458608 414.475776 157.980082 413.774064 158.512464 413.438256 157.975013 413.775648 158.458608 414.475776"></polyline>
            <polyline id="Fill-227" points="205.457472 385.643808 160.21368 414.235008 165.437712 421.885728 194.188896 403.771104 193.393728 402.546672 201.426192 397.340064 164.588688 420.547248 160.218432 414.233424 204.117408 386.491248 232.067088 430.402896 230.578128 439.430112 231.867504 441.35784 233.72712 430.06392 205.457472 385.643808"></polyline>
            <polyline id="Fill-228" points="204.606864 384.306912 204.171264 384.582528 204.825456 384.652224 204.606864 384.306912"></polyline>
            <polyline id="Fill-229" points="202.137408 396.891792 203.157504 398.4156 202.137408 396.891792"></polyline>
            <polyline id="Fill-230" points="202.010688 385.94952 202.010688 385.94952 172.41048 404.654976 202.010688 385.94952"></polyline>
            <polyline id="Fill-231" points="201.684384 399.061872 201.684384 399.061872 202.951584 400.95792 201.684384 399.061872"></polyline>
            <polyline id="Fill-232" points="202.010688 385.94952 158.674032 413.335296 158.512464 413.438256 157.980082 413.774064 158.458608 414.475776 164.14992 422.696736 165.437712 421.885728 160.21368 414.235008 205.457472 385.643808 204.825456 384.652224 204.171264 384.582528 202.010688 385.94952"></polyline>
            <polyline id="Fill-233" points="202.131072 396.882288 201.426192 397.340064 202.137408 396.891792 202.131072 396.882288"></polyline>
            <polyline id="Fill-234" points="232.1352 441.758592 231.867504 441.35784 231.759792 442.00728 232.1352 441.758592"></polyline>
            <polyline id="Fill-235" points="172.796976 469.480176 174.314448 469.815984 173.696688 468.88776 172.796976 469.480176"></polyline>
            <polyline id="Fill-236" points="213.3648 430.382304 219.848112 440.340912 195.585984 403.012368 201.684384 399.061872 201.678048 399.052368 194.188896 403.771104 212.051664 431.253504 213.3648 430.382304"></polyline>
            <polyline id="Fill-237" points="229.935024 441.319824 185.730336 470.714112 176.796576 468.740448 174.9528 469.95696 186.047136 472.407408 230.815728 442.636128 202.951584 400.95792 229.935024 441.319824"></polyline>
            <polyline id="Fill-238" points="230.578128 439.431696 230.578128 439.430112 203.157504 398.4156 230.578128 439.431696"></polyline>
            <polyline id="Fill-239" points="176.794992 468.740448 219.848112 440.340912 213.3648 430.382304 212.051664 431.253504 217.662192 439.886304 173.696688 468.88776 174.314448 469.815984 174.9528 469.95696 176.796576 468.740448 176.794992 468.740448"></polyline>
            <polyline id="Fill-240" points="230.578128 439.431696 203.157504 398.4156 202.137408 396.891792 201.426192 397.340064 193.393728 402.546672 194.188896 403.771104 201.678048 399.052368 201.684384 399.061872 230.815728 442.636128 231.759792 442.00728 231.867504 441.35784 230.578128 439.430112 230.578128 439.431696"></polyline>
            <polyline id="Fill-241" points="601.449552 268.822224 627.804144 308.845152 601.449552 268.822224"></polyline>
            <polyline id="Fill-242" points="627.919776 324.674064 599.236704 279.87696 600.77952 270.686592 627.401808 311.116608 599.501232 268.743024 597.573504 280.21752 626.58288 325.524672 671.050512 297.299376 627.919776 324.674064"></polyline>
            <polyline id="Fill-243" points="638.416944 307.690416 629.809488 313.326288 666.426816 289.916352 671.050512 297.299376 665.593632 288.569952 637.609104 306.462816 638.416944 307.690416"></polyline>
            <polyline id="Fill-244" points="627.436656 326.8584 627.819984 326.616048 627.183216 326.463984 627.436656 326.8584"></polyline>
            <polyline id="Fill-245" points="629.682768 325.431216 629.684352 325.431216 673.228512 297.793584 629.682768 325.431216"></polyline>
            <polyline id="Fill-246" points="599.886144 266.447808 599.613696 268.074576 600.578352 267.498 599.886144 266.447808"></polyline>
            <polyline id="Fill-247" points="646.500096 241.887888 656.349408 243.09648 658.533744 241.769088 646.154784 240.248448 600.578352 267.498 601.449552 268.822224 646.500096 241.887888"></polyline>
            <polyline id="Fill-248" points="612.306288 270.859248 636.219936 307.234224 629.598816 311.5728 627.804144 308.845152 629.603568 311.58072 637.609104 306.462816 619.150752 278.384832 617.848704 279.173664 612.306288 270.859248"></polyline>
            <polyline id="Fill-249" points="599.217696 268.310592 599.501232 268.743024 599.613696 268.074576 599.217696 268.310592"></polyline>
            <polyline id="Fill-250" points="612.537552 269.717184 629.613072 259.341984 612.330048 269.843904 612.537552 269.717184"></polyline>
            <polyline id="Fill-251" points="629.809488 313.326288 629.139456 313.755552 627.401808 311.116608 629.144208 313.763472 629.809488 313.326288"></polyline>
            <polyline id="Fill-252" points="661.071312 242.079552 659.186352 241.848288 659.800944 242.85096 661.071312 242.079552"></polyline>
            <polyline id="Fill-253" points="629.139456 313.755552 629.809488 313.326288 638.416944 307.690416 637.609104 306.462816 629.603568 311.58072 627.804144 308.845152 601.449552 268.822224 600.578352 267.498 599.613696 268.074576 599.501232 268.743024 629.139456 313.755552"></polyline>
            <polyline id="Fill-254" points="656.284464 254.038752 662.95152 264.40128 656.284464 254.038752"></polyline>
            <polyline id="Fill-255" points="655.79184 256.200912 655.79184 256.200912 657.4788 258.820848 655.79184 256.200912"></polyline>
            <polyline id="Fill-256" points="659.800944 242.85096 614.06136 270.643824 619.150752 278.384832 648.215568 260.777088 647.442576 259.539984 655.563744 254.475936 618.325488 277.032096 614.066112 270.64224 658.446466 243.67464 685.620144 288.072576 683.972784 297.07128 685.227312 299.022768 687.286512 287.762112 659.800944 242.85096"></polyline>
            <polyline id="Fill-257" points="658.974096 241.501392 658.533744 241.769088 659.186352 241.848288 658.974096 241.501392"></polyline>
            <polyline id="Fill-258" points="612.306288 270.859248 611.83584 270.14328 612.330048 269.843904 611.831088 270.146448 612.306288 270.859248"></polyline>
            <polyline id="Fill-259" points="684.81072 301.302144 685.110096 299.667456 684.15336 300.280464 684.81072 301.302144"></polyline>
            <polyline id="Fill-260" points="656.349408 243.09648 656.349408 243.09648 629.613072 259.341984 656.349408 243.09648"></polyline>
            <polyline id="Fill-261" points="656.349408 243.09648 612.537552 269.717184 612.330048 269.843904 611.83584 270.14328 612.306288 270.859248 617.848704 279.173664 619.150752 278.384832 614.06136 270.643824 659.800944 242.85096 659.186352 241.848288 658.533744 241.769088 656.349408 243.09648"></polyline>
            <polyline id="Fill-262" points="683.296416 298.94832 638.58168 327.561696 629.684352 325.431216 627.819984 326.616048 638.869968 329.259744 684.15336 300.280464 657.4788 258.820848 683.296416 298.94832"></polyline>
            <polyline id="Fill-263" points="666.921024 287.720928 673.228512 297.793584 649.625328 260.04528 655.79184 256.200912 655.787088 256.191408 648.215568 260.777088 665.593632 288.569952 666.921024 287.720928"></polyline>
            <polyline id="Fill-264" points="685.488672 299.426688 685.227312 299.022768 685.110096 299.667456 685.488672 299.426688"></polyline>
            <polyline id="Fill-265" points="625.67208 326.101248 627.183216 326.463984 626.58288 325.524672 625.67208 326.101248"></polyline>
            <polyline id="Fill-266" points="656.278128 254.030832 655.563744 254.475936 656.284464 254.038752 656.278128 254.030832"></polyline>
            <polyline id="Fill-267" points="683.972784 297.072864 683.972784 297.07128 662.95152 264.40128 683.972784 297.072864"></polyline>
            <polyline id="Fill-268" points="629.682768 325.431216 673.228512 297.793584 666.921024 287.720928 665.593632 288.569952 671.050512 297.299376 626.58288 325.524672 627.183216 326.463984 627.819984 326.616048 629.684352 325.431216 629.682768 325.431216"></polyline>
            <polyline id="Fill-269" points="683.972784 297.072864 656.284464 254.038752 655.563744 254.475936 647.442576 259.539984 648.215568 260.777088 655.787088 256.191408 655.79184 256.200912 684.15336 300.280464 685.110096 299.667456 685.227312 299.022768 683.972784 297.07128 683.972784 297.072864"></polyline>
            <polyline id="Fill-270" points="753.649776 197.759232 749.88144 189.235728 792 207.342432 747.744624 188.315424 752.44752 198.95832 792 216.566064 792 214.833168 753.649776 197.759232"></polyline>
            <polyline id="Fill-271" points="746.805312 186.186528 747.470592 187.69608 747.960048 186.683904 746.805312 186.186528"></polyline>
            <polyline id="Fill-272" points="749.415744 187.309584 749.415744 187.311168 792 205.617456 749.415744 187.309584"></polyline>
            <polyline id="Fill-273" points="759.597538 183.035952 792 196.99416 792 195.269184 769.45968 185.559264 768.805488 186.934176 759.597538 183.035952"></polyline>
            <polyline id="Fill-274" points="747.271008 188.111088 747.744624 188.315424 747.470592 187.69608 747.271008 188.111088"></polyline>
            <polyline id="Fill-275" points="784.496592 132.18084 782.795534 133.02432 783.859824 133.524072 784.496592 132.18084"></polyline>
            <polyline id="Fill-276" points="772.222334 140.035579 781.111584 135.627466 782.206128 133.316251 771.032592 138.856925 747.960048 186.683904 749.415744 187.309584 772.222334 140.035579"></polyline>
            <polyline id="Fill-277" points="759.168274 181.958832 767.3688 164.644128 759.06864 182.171088 759.168274 181.958832"></polyline>
            <polyline id="Fill-278" points="749.415744 187.311168 749.415744 187.309584 747.960048 186.683904 747.470592 187.69608 747.744624 188.315424 792 207.342432 792 205.617456 749.415744 187.311168"></polyline>
            <polyline id="Fill-279" points="781.113168 135.626832 781.111584 135.627466 767.3688 164.644128 781.113168 135.626832"></polyline>
            <polyline id="Fill-280" points="782.427888 132.85103 782.206128 133.316251 782.795534 133.02432 782.427888 132.85103"></polyline>
            <polyline id="Fill-281" points="787.856256 146.87735 787.856256 146.87735 788.106528 146.987914 787.856256 146.87735"></polyline>
            <polyline id="Fill-282" points="787.076928 144.801677 787.312944 144.905429 787.076928 144.801677"></polyline>
            <polyline id="Fill-283" points="760.950274 181.895472 769.45968 185.559264 784.046736 154.866888 782.719344 154.259266 786.714192 145.564848 768.02616 184.882896 760.9536 181.89072 783.181872 134.957117 792 139.098485 792 137.34769 783.859824 133.524072 760.950274 181.895472"></polyline>
            <polyline id="Fill-284" points="759.597538 183.035952 758.818368 182.700144 759.06864 182.171088 758.813616 182.704896 759.597538 183.035952"></polyline>
            <polyline id="Fill-285" points="781.113168 135.626832 759.168274 181.958832 759.06864 182.171088 758.818368 182.700144 759.597538 183.035952 768.805488 186.934176 769.45968 185.559264 760.950274 181.895472 783.859824 133.524072 782.795534 133.02432 782.206128 133.316251 781.111584 135.627466 781.113168 135.626832"></polyline>
            <polyline id="Fill-286" points="787.312944 144.905429 792 146.979835 787.312944 144.905429"></polyline>
            <polyline id="Fill-287" points="792 148.711147 792 148.711147 788.106528 146.987914 792 148.711147"></polyline>
            <polyline id="Fill-288" points="787.067424 144.797242 786.714192 145.564848 787.076928 144.801677 787.067424 144.797242"></polyline>
            <polyline id="Fill-289" points="792 156.76848 784.819728 153.479621 787.856256 146.87735 787.845168 146.872757 784.046736 154.866888 792 158.51088 792 156.76848"></polyline>
            <polyline id="Fill-290" points="787.856256 146.87735 787.856256 146.87735 788.106528 146.987914 792 148.711147 792 146.979835 787.312944 144.905429 787.076928 144.801677 786.714192 145.564848 782.719344 154.259266 784.046736 154.866888 787.845168 146.872757 787.856256 146.87735"></polyline>
            <polyline id="Fill-291" points="0 207.342432 0 207.342432 4.1641776 209.132352 0 207.342432"></polyline>
            <polyline id="Fill-292" points="0 205.617456 0 205.617456 2.0047104 206.480736 0 205.617456"></polyline>
            <polyline id="Fill-293" points="31.2054336 172.80648 10.24452 219.393504 0 214.833168 0 216.566064 9.5960304 220.838112 31.2054336 172.80648"></polyline>
            <polyline id="Fill-294" points="11.0431728 221.4828 11.2296096 221.069376 10.6147008 221.291136 11.0431728 221.4828"></polyline>
            <polyline id="Fill-295" points="12.1335984 219.054528 12.1356576 219.054528 33.296472 172.020816 12.1335984 219.054528"></polyline>
            <polyline id="Fill-296" points="8.3186928 198.853776 9.6684192 199.435104 5.5818576 208.875744 23.2827408 169.183872 31.2054336 172.80648 21.846528 168.518592 8.3186928 198.853776"></polyline>
            <polyline id="Fill-297" points="4.1641776 209.132352 5.2655328 209.605968 5.5818576 208.875744 5.2574544 209.6028 4.1641776 209.132352"></polyline>
            <polyline id="Fill-298" points="0 196.99416 7.5835584 200.261952 4.4410608 207.52776 2.0047104 206.480736 4.4488224 207.530928 8.3186928 198.853776 0 195.269184 0 196.99416"></polyline>
            <polyline id="Fill-299" points="5.2574544 209.6028 5.5818576 208.875744 9.6684192 199.435104 8.3186928 198.853776 4.4488224 207.530928 2.0047104 206.480736 0 205.617456 0 207.342432 4.1641776 209.132352 5.2574544 209.6028"></polyline>
            <polyline id="Fill-300" points="44.899272 168.578784 44.2495152 167.050224 43.7874624 168.087744 44.899272 168.578784"></polyline>
            <polyline id="Fill-301" points="38.2974768 157.08528 41.8724064 165.507408 43.9930656 166.445136 39.517632 155.909794 0 137.34769 0 139.098485 38.2974768 157.08528"></polyline>
            <polyline id="Fill-302" points="44.4324672 166.639968 43.9930656 166.445136 44.2495152 167.050224 44.4324672 166.639968"></polyline>
            <polyline id="Fill-303" points="0 148.711147 42.339528 167.446224 20.7374112 215.9388 12.1356576 219.054528 11.2296096 221.069376 21.9119472 217.199664 43.7874624 168.087744 0 148.711147"></polyline>
            <polyline id="Fill-304" points="0 158.51088 21.846528 168.518592 22.4885232 167.078736 33.296472 172.020816 0 156.76848 0 158.51088"></polyline>
            <polyline id="Fill-305" points="0 146.979835 41.8724064 165.507408 0 146.979835"></polyline>
            <polyline id="Fill-306" points="9.1536192 221.820192 10.6147008 221.291136 9.5960304 220.838112 9.1536192 221.820192"></polyline>
            <polyline id="Fill-307" points="12.1335984 219.054528 33.296472 172.020816 22.4885232 167.078736 21.846528 168.518592 31.2054336 172.80648 9.5960304 220.838112 10.6147008 221.291136 11.2296096 221.069376 12.1356576 219.054528 12.1335984 219.054528"></polyline>
            <polyline id="Fill-308" points="41.8724064 165.507408 0 146.979835 0 148.711147 43.7874624 168.087744 44.2495152 167.050224 43.9930656 166.445136 41.8724064 165.507408"></polyline>
            <polyline id="Fill-309" points="223.682976 61.3986912 223.344 63.0132624 224.332416 62.4756528 223.682976 61.3986912"></polyline>
            <polyline id="Fill-310" points="225.148176 63.8342496 249.93936 104.968987 225.14976 63.8337744 225.148176 63.8342496"></polyline>
            <polyline id="Fill-311" points="260.534736 104.147208 251.710272 109.435234 289.232064 87.5060208 293.557968 95.0683536 288.452736 86.128416 259.777584 102.887928 260.534736 104.147208"></polyline>
            <polyline id="Fill-312" points="248.797296 122.862168 249.190128 122.634547 248.56128 122.456981 248.797296 122.862168"></polyline>
            <polyline id="Fill-313" points="251.098848 121.525589 251.100432 121.525906 295.713792 95.6487312 251.098848 121.525589"></polyline>
            <polyline id="Fill-314" points="249.367536 120.698741 222.49656 74.7914112 224.40528 65.6696304 249.40872 107.157442 223.206192 63.6763248 220.822272 75.0644928 247.997376 121.494701 293.557968 95.0683536 249.367536 120.698741"></polyline>
            <polyline id="Fill-315" points="251.710272 109.435234 251.022816 109.837253 249.40872 107.157442 251.027568 109.844698 251.710272 109.435234"></polyline>
            <polyline id="Fill-316" points="236.193408 65.1717792 251.875008 56.4808464 235.985904 65.2866192 236.193408 65.1717792"></polyline>
            <polyline id="Fill-317" points="271.239408 38.7194544 281.031696 40.3211952 283.269888 39.0817152 270.960624 37.068768 224.332416 62.4756528 225.14976 63.8337744 271.239408 38.7194544"></polyline>
            <polyline id="Fill-318" points="222.94008 63.2339136 223.206192 63.6763248 223.344 63.0132624 222.94008 63.2339136"></polyline>
            <polyline id="Fill-319" points="285.791616 39.4940304 283.917744 39.1876848 284.492736 40.2144336 285.791616 39.4940304"></polyline>
            <polyline id="Fill-320" points="241.122816 74.8318032 235.91304 66.2956272 258.35832 103.603579 251.569296 107.674459 249.93936 104.968987 251.574048 107.682221 259.777584 102.887928 242.45496 74.096352 241.122816 74.8318032"></polyline>
            <polyline id="Fill-321" points="251.022816 109.837253 251.710272 109.435234 260.534736 104.147208 259.777584 102.887928 251.574048 107.682221 225.148176 63.8342496 225.14976 63.8337744 224.332416 62.4756528 223.344 63.0132624 223.206192 63.6763248 251.022816 109.837253"></polyline>
            <polyline id="Fill-322" points="235.91304 66.2956272 235.475856 65.5692048 235.985904 65.2866192 235.471104 65.5709472 235.91304 66.2956272"></polyline>
            <polyline id="Fill-323" points="279.952992 53.3931552 282.22128 57.2490864 279.952992 53.3931552"></polyline>
            <polyline id="Fill-324" points="280.531152 51.2525376 285.6744 59.9946336 280.531152 51.2525376"></polyline>
            <polyline id="Fill-325" points="283.719744 38.8319184 283.269888 39.0817152 283.917744 39.1876848 283.719744 38.8319184"></polyline>
            <polyline id="Fill-326" points="281.03328 40.3211952 281.031696 40.3211952 251.875008 56.4808464 281.03328 40.3211952"></polyline>
            <polyline id="Fill-327" points="242.45496 74.096352 272.200896 57.6636192 271.477008 56.3964192 279.796176 51.6586752 241.683552 72.7113024 237.683952 66.1563936 283.105152 40.9834656 308.484 86.430168 306.478656 95.3569584 307.655568 97.3556496 310.161456 86.1863904 284.492736 40.2144336 237.6792 66.158136 242.45496 74.096352"></polyline>
            <polyline id="Fill-328" points="307.147104 99.6174432 307.511424 97.996536 306.530928 98.5697856 307.147104 99.6174432"></polyline>
            <polyline id="Fill-329" points="281.03328 40.3211952 236.193408 65.1717792 235.985904 65.2866192 235.475856 65.5692048 235.91304 66.2956272 241.122816 74.8318032 242.45496 74.096352 237.6792 66.158136 284.492736 40.2144336 283.917744 39.1876848 283.269888 39.0817152 281.031696 40.3211952 281.03328 40.3211952"></polyline>
            <polyline id="Fill-330" points="279.952992 53.3931552 279.94824 53.3834928 272.200896 57.6636192 288.452736 86.128416 289.813392 85.3329312 295.713792 95.6487312 273.637584 56.9872512 279.952992 53.3931552"></polyline>
            <polyline id="Fill-331" points="280.524816 51.2433504 279.796176 51.6586752 280.531152 51.2525376 280.524816 51.2433504"></polyline>
            <polyline id="Fill-332" points="247.065984 122.03532 248.56128 122.456981 247.997376 121.494701 247.065984 122.03532"></polyline>
            <polyline id="Fill-333" points="306.478656 95.3574336 306.478656 95.3569584 285.6744 59.9946336 306.478656 95.3574336"></polyline>
            <polyline id="Fill-334" points="307.89792 97.7698656 307.655568 97.3556496 307.511424 97.996536 307.89792 97.7698656"></polyline>
            <polyline id="Fill-335" points="306.530928 98.5697856 282.22128 57.2490864 305.72784 97.2050112 259.905888 124.009618 251.100432 121.525906 249.190128 122.634547 260.126064 125.718437 306.530928 98.5697856"></polyline>
            <polyline id="Fill-336" points="251.098848 121.525589 295.713792 95.6487312 289.813392 85.3329312 288.452736 86.128416 293.557968 95.0683536 247.997376 121.494701 248.56128 122.456981 249.190128 122.634547 251.100432 121.525906 251.098848 121.525589"></polyline>
            <polyline id="Fill-337" points="306.478656 95.3574336 280.531152 51.2525376 279.796176 51.6586752 271.477008 56.3964192 272.200896 57.6636192 279.94824 53.3834928 279.952992 53.3931552 306.530928 98.5697856 307.511424 97.996536 307.655568 97.3556496 306.478656 95.3569584 306.478656 95.3574336"></polyline>
            <polyline id="Fill-338" points="573.39216 472.426416 573.054768 474.042096 574.0416 473.503536 573.39216 472.426416"></polyline>
            <polyline id="Fill-339" points="597.708144 532.523376 643.267152 506.09592 599.07672 531.726624 572.205744 485.819136 574.116048 476.698464 599.117904 518.185008 572.915376 474.704208 570.531456 486.093168 597.708144 532.523376"></polyline>
            <polyline id="Fill-340" points="600.809616 532.553472 600.8112 532.553472 645.42456 506.677248 600.809616 532.553472"></polyline>
            <polyline id="Fill-341" points="574.858944 474.862608 599.648544 515.997504 574.860528 474.861024 574.858944 474.862608"></polyline>
            <polyline id="Fill-342" points="598.508064 533.890368 598.900896 533.662272 598.270464 533.484864 598.508064 533.890368"></polyline>
            <polyline id="Fill-343" points="609.486768 513.916128 610.24392 515.175408 601.42104 520.4628 638.942832 498.533904 643.267152 506.09592 638.16192 497.155824 609.486768 513.916128"></polyline>
            <polyline id="Fill-344" points="601.42104 520.4628 600.732 520.865136 599.117904 518.185008 600.736752 520.873056 601.42104 520.4628"></polyline>
            <polyline id="Fill-345" points="585.902592 476.199504 601.584192 467.50968 585.695088 476.315136 585.902592 476.199504"></polyline>
            <polyline id="Fill-346" points="590.832 485.86032 585.622224 477.324144 608.069088 514.632096 601.27848 518.702976 599.648544 515.997504 601.283232 518.710896 609.486768 513.916128 592.164144 485.12376 590.832 485.86032"></polyline>
            <polyline id="Fill-347" points="620.950176 449.748288 630.742464 451.349712 632.979072 450.10944 620.669808 448.096176 574.0416 473.503536 574.860528 474.861024 620.950176 449.748288"></polyline>
            <polyline id="Fill-348" points="635.5008 450.522864 633.628512 450.215568 634.20192 451.242 635.5008 450.522864"></polyline>
            <polyline id="Fill-349" points="572.649264 474.262272 572.915376 474.704208 573.054768 474.042096 572.649264 474.262272"></polyline>
            <polyline id="Fill-350" points="600.732 520.865136 601.42104 520.4628 610.24392 515.175408 609.486768 513.916128 601.283232 518.710896 574.858944 474.862608 574.860528 474.861024 574.0416 473.503536 573.054768 474.042096 572.915376 474.704208 600.732 520.865136"></polyline>
            <polyline id="Fill-351" points="630.744048 451.349712 630.742464 451.349712 601.584192 467.50968 630.744048 451.349712"></polyline>
            <polyline id="Fill-352" points="630.240336 462.280896 635.383584 471.022992 630.240336 462.280896"></polyline>
            <polyline id="Fill-353" points="592.164144 485.12376 621.91008 468.691344 621.186192 467.424144 629.50536 462.6864 591.39432 483.739344 587.393136 477.184752 632.81592 452.011824 658.194768 497.458368 656.189266 506.385792 657.364752 508.383216 659.87064 497.214432 634.20192 451.242 587.388384 477.186336 592.164144 485.12376"></polyline>
            <polyline id="Fill-354" points="633.428928 449.859168 632.979072 450.10944 633.628512 450.215568 633.428928 449.859168"></polyline>
            <polyline id="Fill-355" points="585.622224 477.324144 585.18504 476.597088 585.695088 476.315136 585.180288 476.598672 585.622224 477.324144"></polyline>
            <polyline id="Fill-356" points="629.66376 464.42088 629.66376 464.42088 631.932048 468.27792 629.66376 464.42088"></polyline>
            <polyline id="Fill-357" points="656.857872 510.645168 657.220608 509.024736 656.240112 509.598144 656.857872 510.645168"></polyline>
            <polyline id="Fill-358" points="630.744048 451.349712 585.902592 476.199504 585.695088 476.315136 585.18504 476.597088 585.622224 477.324144 590.832 485.86032 592.164144 485.12376 587.388384 477.186336 634.20192 451.242 633.628512 450.215568 632.979072 450.10944 630.742464 451.349712 630.744048 451.349712"></polyline>
            <polyline id="Fill-359" points="657.608688 508.798224 657.364752 508.383216 657.220608 509.024736 657.608688 508.798224"></polyline>
            <polyline id="Fill-360" points="596.775168 533.06352 598.270464 533.484864 597.708144 532.523376 596.775168 533.06352"></polyline>
            <polyline id="Fill-361" points="655.437024 508.232736 609.615072 535.037184 600.8112 532.553472 598.900896 533.662272 609.835248 536.74632 656.240112 509.598144 631.932048 468.27792 655.437024 508.232736"></polyline>
            <polyline id="Fill-362" points="639.52416 496.360656 645.42456 506.677248 623.346768 468.014976 629.66376 464.42088 629.657424 464.411376 621.91008 468.691344 638.16192 497.155824 639.52416 496.360656"></polyline>
            <polyline id="Fill-363" points="630.235584 462.271392 629.50536 462.6864 630.240336 462.280896 630.235584 462.271392"></polyline>
            <polyline id="Fill-364" points="656.18784 506.385792 656.189266 506.385792 635.383584 471.022992 656.18784 506.385792"></polyline>
            <polyline id="Fill-365" points="600.809616 532.553472 645.42456 506.677248 639.52416 496.360656 638.16192 497.155824 643.267152 506.09592 597.708144 532.523376 598.270464 533.484864 598.900896 533.662272 600.8112 532.553472 600.809616 532.553472"></polyline>
            <polyline id="Fill-366" points="656.18784 506.385792 630.240336 462.280896 629.50536 462.6864 621.186192 467.424144 621.91008 468.691344 629.657424 464.411376 629.66376 464.42088 656.240112 509.598144 657.220608 509.024736 657.364752 508.383216 656.189266 506.385792 656.18784 506.385792"></polyline>
        </g>
    </g>
</svg>